# xmcd
#
# Track frame offsets: 
#        150
#        14022
#        29245
#        41917
#        55312
#        67487
#        80072
#        94007
#        104030
#        118442
#
# Disc length: 1743 seconds
#
# Revision: 0
# Processed by: cddbd v1.5.2PL0 Copyright (c) Steve Scherf et al.
# Submitted via: ExactAudioCopy v0.95b4
#
DISCID=a406cd0a
DTITLE=DuWayne Heyd - Goin' Country Style
DYEAR=1997
DGENRE=
TTITLE0=Angry Bitter Words
TTITLE1=Preview of Paradise
TTITLE2=His Last Rodeo
TTITLE3=Goin' Country Style
TTITLE4=I Gotta Go
TTITLE5=Flood of '97
TTITLE6=Please Help Me I'm Falling
TTITLE7=Mail Order Bride
TTITLE8=My Latest Heartache
TTITLE9=Another Sleepless Night
EXTD=
EXTT0=
EXTT1=
EXTT2=
EXTT3=
EXTT4=
EXTT5=
EXTT6=
EXTT7=
EXTT8=
EXTT9=
PLAYORDER=
